<svg xmlns="http://www.w3.org/2000/svg" xmlns:xlink="http://www.w3.org/1999/xlink" width="41" height="41" fill="none" xmlns:v="https://vecta.io/nano"><g fill="#fff"><path d="M20.759 32.089a11.48 11.48 0 0 1-6.984-2.422c-.244-.206-.409-.492-.466-.806s-.002-.639.154-.918c.062-.132.153-.248.265-.34a.98.98 0 0 1 .817-.2.98.98 0 0 1 .392.179c1.659 1.307 3.709 2.017 5.82 2.017s4.162-.71 5.82-2.017a.98.98 0 0 1 .824-.171.98.98 0 0 1 .386.192c.113.092.204.208.266.34.157.279.211.603.154.918s-.221.6-.466.806a11.48 11.48 0 0 1-6.984 2.422z"/><use xlink:href="#B"/><use xlink:href="#B" x="16.185"/><path d="M18.891 25.241a1.24 1.24 0 0 1-.88-.365 1.25 1.25 0 0 1-.365-.88 1.24 1.24 0 0 1 .365-.88 1.25 1.25 0 0 1 .88-.365 1.24 1.24 0 0 0 .88-.365 1.25 1.25 0 0 0 .365-.88v-6.847a1.24 1.24 0 0 1 .365-.88 1.25 1.25 0 0 1 .88-.365 1.24 1.24 0 0 1 .88.365 1.25 1.25 0 0 1 .365.88v6.847a3.73 3.73 0 0 1-1.094 2.641c-.701.7-1.65 1.094-2.641 1.094zm-4.357 14.94C5.197 40.181.839 35.824.839 26.486a1.24 1.24 0 0 1 .365-.88 1.25 1.25 0 0 1 .88-.365 1.24 1.24 0 0 1 .88.365 1.25 1.25 0 0 1 .365.88c0 8.092 3.112 11.205 11.205 11.205a1.24 1.24 0 0 1 .88.365 1.25 1.25 0 0 1 .365.88 1.24 1.24 0 0 1-.365.88 1.25 1.25 0 0 1-.88.365zm24.899-24.899a1.24 1.24 0 0 1-.88-.365 1.25 1.25 0 0 1-.365-.88c0-8.092-3.112-11.204-11.205-11.204a1.24 1.24 0 0 1-.88-.365 1.25 1.25 0 0 1-.365-.88 1.24 1.24 0 0 1 .365-.88 1.25 1.25 0 0 1 .88-.365c9.337 0 13.695 4.357 13.695 13.694a1.24 1.24 0 0 1-.365.88 1.25 1.25 0 0 1-.88.365zm-37.348 0a1.24 1.24 0 0 1-.88-.365 1.25 1.25 0 0 1-.365-.88C.84 4.7 5.197.343 14.534.343a1.24 1.24 0 0 1 .88.365 1.25 1.25 0 0 1 .365.88 1.24 1.24 0 0 1-.365.88 1.25 1.25 0 0 1-.88.365C6.442 2.832 3.33 5.945 3.33 14.037a1.24 1.24 0 0 1-.365.88 1.25 1.25 0 0 1-.88.365zm24.898 24.899a1.24 1.24 0 0 1-.88-.365 1.25 1.25 0 0 1-.365-.88 1.24 1.24 0 0 1 .365-.88 1.25 1.25 0 0 1 .88-.365c8.092 0 11.205-3.112 11.205-11.204a1.24 1.24 0 0 1 .365-.88 1.25 1.25 0 0 1 .88-.365 1.24 1.24 0 0 1 .88.365 1.25 1.25 0 0 1 .365.88c0 9.337-4.357 13.694-13.695 13.694z"/></g><defs ><path id="B" d="M12.666 19.017c-.33 0-.647-.131-.88-.365s-.365-.55-.365-.88v-3.112c0-.33.131-.647.365-.88s.55-.365.88-.365.647.131.88.365.365.55.365.88v3.112c0 .33-.131.647-.365.88s-.55.365-.88.365z"/></defs></svg>