<svg xmlns="http://www.w3.org/2000/svg" width="76" height="39" fill="none" xmlns:v="https://vecta.io/nano"><path d="M7.432 26.136v4.176c0 .64.064 1.112.192 1.416.144.288.384.48.72.576.352.096.904.152 1.656.168V33l-4.392-.072-3.024.048-.768.024v-.48c.528-.032.912-.096 1.152-.192.256-.096.424-.28.504-.552.096-.272.144-.712.144-1.32V18.552c0-.608-.048-1.048-.144-1.32-.08-.272-.248-.456-.504-.552-.24-.096-.624-.16-1.152-.192v-.48l3.648.072 2.664-.024 1.104-.024c2.16 0 3.808.432 4.944 1.296 1.136.848 1.704 1.992 1.704 3.432 0 .88-.224 1.728-.672 2.544-.448.8-1.208 1.472-2.28 2.016-1.056.544-2.464.816-4.224.816H7.432zm1.488-9.648c-.432 0-.752.056-.96.168-.192.112-.328.312-.408.6s-.12.72-.12 1.296v7.104h1.032c1.296 0 2.192-.416 2.688-1.248s.744-1.96.744-3.384c0-1.552-.232-2.696-.696-3.432-.448-.736-1.208-1.104-2.28-1.104zM20.071 14.4c.672 0 1.2.168 1.584.504.4.32.6.768.6 1.344s-.2 1.032-.6 1.368c-.384.32-.912.48-1.584.48s-1.208-.16-1.608-.48c-.384-.336-.576-.792-.576-1.368s.192-1.024.576-1.344c.4-.336.936-.504 1.608-.504zm1.872 16.368c0 .656.112 1.112.336 1.368.24.24.64.36 1.2.36V33l-3.192-.096-3.336.096v-.504c.576 0 .976-.12 1.2-.36.224-.256.336-.712.336-1.368v-7.56c0-.736-.112-1.272-.336-1.608s-.624-.504-1.2-.504v-.504l1.488.072c1.424 0 2.592-.112 3.504-.336v10.44zm15.37-14.28l-8.208 15.96h2.496c1.248 0 2.352-.416 3.312-1.248.976-.832 1.56-2.152 1.752-3.96h.552c-.048.544-.072 1.248-.072 2.112L37.313 33l-5.976-.072-6.456.072v-.48l8.232-15.96h-2.592c-1.312 0-2.392.376-3.24 1.128-.832.752-1.352 2.016-1.56 3.792h-.552c.048-.464.072-1.072.072-1.824l-.168-3.648 5.4.072 6.84-.072v.48zm14.438 0l-8.208 15.96h2.496c1.248 0 2.352-.416 3.312-1.248.976-.832 1.56-2.152 1.752-3.96h.552c-.048.544-.072 1.248-.072 2.112L51.751 33l-5.976-.072-6.456.072v-.48l8.232-15.96h-2.592c-1.312 0-2.392.376-3.24 1.128-.832.752-1.352 2.016-1.56 3.792h-.552c.048-.464.072-1.072.072-1.824l-.168-3.648 5.4.072 6.84-.072v.48zm15.734 14.496c.208.528.448.912.72 1.152s.536.368.792.384V33l-3.648-.072L61.7 33v-.48c.608-.032 1.04-.104 1.296-.216.256-.128.384-.344.384-.648 0-.288-.096-.672-.288-1.152l-1.44-3.936H56.42l-.624 1.656c-.448 1.152-.672 2.04-.672 2.664 0 .592.176 1.008.528 1.248.368.224.904.352 1.608.384V33l-2.976-.072L52.46 33v-.48c.784-.144 1.472-.984 2.064-2.52l5.472-14.04c.176.016.456.024.84.024l.816-.024 5.832 15.024zm-6-4.896l-2.376-6.48-2.496 6.48h4.872zm10.584 3.552c.624 0 1.12.168 1.488.504.368.32.552.768.552 1.344s-.184 1.032-.552 1.368c-.368.32-.864.48-1.488.48s-1.12-.16-1.488-.48c-.368-.336-.552-.792-.552-1.368s.184-1.024.552-1.344c.368-.336.864-.504 1.488-.504z" fill="#231e36"/><circle cx="61" cy="14" r="14" fill="#fa5c5c"/><mask id="A" maskUnits="userSpaceOnUse" x="0" y="15" width="75" height="19" mask-type="alpha"><path d="M6.432 26.136v4.176c0 .64.064 1.112.192 1.416.144.288.384.48.72.576.352.096.904.152 1.656.168V33l-4.392-.072-3.024.048L.816 33v-.48c.528-.032.912-.096 1.152-.192.256-.096.424-.28.504-.552.096-.272.144-.712.144-1.32V18.552c0-.608-.048-1.048-.144-1.32-.08-.272-.248-.456-.504-.552-.24-.096-.624-.16-1.152-.192v-.48l3.648.072 2.664-.024 1.104-.024c2.16 0 3.808.432 4.944 1.296 1.136.848 1.704 1.992 1.704 3.432 0 .88-.224 1.728-.672 2.544-.448.8-1.208 1.472-2.28 2.016-1.056.544-2.464.816-4.224.816H6.432zm1.488-9.648c-.432 0-.752.056-.96.168-.192.112-.328.312-.408.6s-.12.72-.12 1.296v7.104h1.032c1.296 0 2.192-.416 2.688-1.248s.744-1.96.744-3.384c0-1.552-.232-2.696-.696-3.432-.448-.736-1.208-1.104-2.28-1.104zm15.57 0c-.544.032-.936.096-1.176.192s-.408.28-.504.552c-.08.272-.12.712-.12 1.32v11.904c0 .608.04 1.048.12 1.32.096.272.264.456.504.552s.632.16 1.176.192V33l-3.624-.072-3.792.072v-.48c.528-.032.912-.096 1.152-.192.256-.096.424-.28.504-.552.096-.272.144-.712.144-1.32V18.552c0-.608-.048-1.048-.144-1.32-.08-.272-.248-.456-.504-.552-.24-.096-.624-.16-1.152-.192v-.48l3.792.072 3.624-.072v.48zm14.159 0l-8.208 15.96h2.496c1.248 0 2.352-.416 3.312-1.248.976-.832 1.56-2.152 1.752-3.96h.552c-.048.544-.072 1.248-.072 2.112L37.649 33l-5.976-.072-6.456.072v-.48l8.232-15.96h-2.592c-1.312 0-2.392.376-3.24 1.128-.832.752-1.352 2.016-1.56 3.792h-.552c.048-.464.072-1.072.072-1.824l-.168-3.648 5.4.072 6.84-.072v.48zm14.438 0l-8.208 15.96h2.496c1.248 0 2.352-.416 3.312-1.248.976-.832 1.56-2.152 1.752-3.96h.552c-.048.544-.072 1.248-.072 2.112L52.087 33l-5.976-.072-6.456.072v-.48l8.232-15.96h-2.592c-1.312 0-2.392.376-3.24 1.128-.832.752-1.352 2.016-1.56 3.792h-.552c.048-.464.072-1.072.072-1.824l-.168-3.648 5.4.072 6.84-.072v.48zM67.82 30.984c.208.528.448.912.72 1.152s.536.368.792.384V33l-3.648-.072-3.648.072v-.48c.608-.032 1.04-.104 1.296-.216.256-.128.384-.344.384-.648 0-.288-.096-.672-.288-1.152l-1.44-3.936h-5.232l-.624 1.656c-.448 1.152-.672 2.04-.672 2.664 0 .592.176 1.008.528 1.248.368.224.904.352 1.608.384V33l-2.976-.072-1.824.072v-.48c.784-.144 1.472-.984 2.064-2.52l5.472-14.04c.176.016.456.024.84.024l.816-.024 5.832 15.024zm-6-4.896l-2.376-6.48-2.496 6.48h4.872zm10.584 3.552c.624 0 1.12.168 1.488.504.368.32.552.768.552 1.344s-.184 1.032-.552 1.368c-.368.32-.864.48-1.488.48s-1.12-.16-1.488-.48c-.368-.336-.552-.792-.552-1.368s.184-1.024.552-1.344c.368-.336.864-.504 1.488-.504z" fill="#fff"/></mask><g mask="url(#A)"><circle cx="61" cy="14" r="14" fill="#fff"/></g></svg>